<svg version="1.1" xmlns="http://www.w3.org/2000/svg" xmlns:xlink="http://www.w3.org/1999/xlink" width="24px" height="24px" viewBox="0,0,256,256"><g fill="#121212" fill-rule="nonzero" stroke="none" stroke-width="1" stroke-linecap="butt" stroke-linejoin="miter" stroke-miterlimit="10" stroke-dasharray="" stroke-dashoffset="0" font-family="none" font-weight="none" font-size="none" text-anchor="none" style="mix-blend-mode: normal"><g transform="scale(10.66667,10.66667)"><path d="M3,22c-0.55228,0 -1,-0.44772 -1,-1v-18c0,-0.55228 0.44772,-1 1,-1c0.55228,0 1,0.44772 1,1v18c0,0.55228 -0.44772,1 -1,1zM15.5,2.134c-0.3094,-0.17863 -0.69059,-0.17863 -0.99999,-0.00001c-0.3094,0.17863 -0.5,0.50875 -0.50001,0.86601v18c0,0.55228 0.44772,1 1,1h6c0.55228,0 1,-0.44772 1,-1v-14.536c-0.00001,-0.35726 -0.19061,-0.68737 -0.5,-0.866zM9,2c-0.55228,0 -1,0.44772 -1,1v18c0,0.55228 0.44772,1 1,1c0.55228,0 1,-0.44772 1,-1v-18c0,-0.55228 -0.44772,-1 -1,-1z"></path></g></g></svg>